<svg xmlns="http://www.w3.org/2000/svg" viewBox="0 0 400 400"><path d="M0 0h400v400H0z" fill="#f3f3f3"/><path d="M200 36c90.6 0 164 73.5 164 164s-73.5 164-164 164S36 290.6 36 200 109.4 36 200 36z" fill="#d50032"/><path d="M200 18c100.5 0 182 81.5 182 182s-81.5 182-182 182S18 300.5 18 200 99.5 18 200 18z" fill="#ffcc00"/><path class="logomark" d="M125 175h150v150H125z" fill="#423c2a"/><path class="text" d="M51 127c17.8-43 57.3-73 102.9-73h109.9c9.7 0 19 1.5 27.9 4.1 6.1-6.5 15-10.6 24.1-10.6 6.6 0 12.8 2.4 17.7 6.4 9.7 8.8 11.5 23.4 4 34.1-12.4 15.3-30.6 24.4-51.2 24.4H145.7c-10.4 0-20.1-1.5-28.4-4.3-3.9 17.1-13.9 31.2-28.8 39.6 8.3 6 10.5 16.7 10.5 25.7 0 13.8-4.7 29-13.6 29-9.4 0-9.2-15.5-7.7-22.7 0 0 5.3-19.5-12.1-26.6-5.2-2.5-12.4-4.2-19-4.2-13.4 0-20.7 9.7-20.7 14s-1.6 9.9-1.6 14c0 7.3 1.9 26.1 29.4 26.1 13.8 0 27.9-6.5 36.2-19.2 5.5-9.1 9.8-23.8 12.5-36.5 8.7 1.2 17.3 1.5 25.4 1.9 7.8-17.4-9.8-27.6-22.8-25.7-8.3 1.4-27-3.8-26.8-26.2L120 79c-4.5-10.8-16-19-27-19-15.6 0-24.5 11.9-24.7 24.5-.24 14.7 12.3 24.4 25.7 24.4 9 0 28.5-8.6 39-7.8s20.8 14.9 29.1 14.9c8.3 0 25.4-13.4 25.4-22.8 0-6.4-8.8-15-14.7-15-4.6 0-10.4 5.7-10.4 6-7.2 7.6-7.8 23.7-7.8 23.7V211c-.1 5.5 2.6 12.3 9.1 12.3 2 0 3.8-.6 5.4-1.8 30.9-15.7 58.4-34.5 77.9-42.5z" fill="#f3f3f3"/></svg>